<svg width="512" height="512" viewBox="-16 -16 544 544" fill="none" xmlns="http://www.w3.org/2000/svg">
  <defs>
    <linearGradient id="bg" x1="96" y1="32" x2="416" y2="480" gradientUnits="userSpaceOnUse">
      <stop stop-color="#0B1224" />
      <stop offset="1" stop-color="#0F1F3A" />
    </linearGradient>
    <linearGradient id="panel" x1="96" y1="120" x2="416" y2="324" gradientUnits="userSpaceOnUse">
      <stop stop-color="#172A4D" />
      <stop offset="1" stop-color="#12345A" />
    </linearGradient>
    <linearGradient id="accent" x1="210" y1="280" x2="330" y2="392" gradientUnits="userSpaceOnUse">
      <stop stop-color="#5AD2FF" />
      <stop offset="1" stop-color="#7C8CFF" />
    </linearGradient>
    <filter id="shadow" x="-48" y="-48" width="640" height="640" filterUnits="userSpaceOnUse" color-interpolation-filters="sRGB">
      <feDropShadow dx="0" dy="14" stdDeviation="18" flood-color="#001222" flood-opacity="0.35" />
    </filter>
  </defs>
  <rect x="32" y="32" width="448" height="448" rx="96" fill="url(#bg)" />
  <rect x="96" y="112" width="320" height="220" rx="24" fill="url(#panel)" stroke="#5AD2FF" stroke-width="4" stroke-opacity="0.18" />
  <rect x="116" y="136" width="280" height="28" rx="10" fill="#0C1C36" stroke="#5AD2FF" stroke-opacity="0.12" stroke-width="2" />
  <rect x="132" y="184" width="120" height="20" rx="8" fill="#243B66" />
  <rect x="132" y="214" width="160" height="20" rx="8" fill="#1E3157" />
  <rect x="132" y="244" width="110" height="20" rx="8" fill="#243B66" />
  <rect x="310" y="184" width="72" height="40" rx="12" fill="#5AD2FF" fill-opacity="0.18" stroke="#5AD2FF" stroke-opacity="0.4" stroke-width="3" />
  <rect x="292" y="238" width="90" height="28" rx="10" fill="#7C8CFF" fill-opacity="0.18" stroke="#7C8CFF" stroke-opacity="0.35" stroke-width="3" />
  <g filter="url(#shadow)">
    <circle cx="270" cy="296" r="70" fill="#0F1E36" stroke="url(#accent)" stroke-width="12" />
  </g>
  <path d="M319 343L376 400" stroke="url(#accent)" stroke-width="14" stroke-linecap="round" />
  <circle cx="270" cy="296" r="46" stroke="#5AD2FF" stroke-opacity="0.7" stroke-width="8" fill="none" />
  <path d="M236 282C246 262 274 257 290 272" stroke="#7C8CFF" stroke-width="6" stroke-linecap="round" />
  <circle cx="376" cy="400" r="16" fill="#0D1A30" stroke="url(#accent)" stroke-width="10" />
  <rect x="200" y="340" width="52" height="12" rx="6" fill="#5AD2FF" fill-opacity="0.3" />
  <rect x="198" y="320" width="40" height="10" rx="5" fill="#7C8CFF" fill-opacity="0.25" />
</svg>
